<mxfile host="app.diagrams.net" modified="2024-02-22T23:47:05.803Z" agent="Mozilla/5.0 (Linux; Android 10; K) AppleWebKit/537.36 (KHTML, like Gecko) Chrome/121.0.0.0 Mobile Safari/537.36" etag="h8YemhbSzKcLw_3dB0GB" version="23.1.6" type="github">
  <diagram name="Page-1" id="N1hScFI6HxYruCiYbFcU">
    <mxGraphModel dx="326" dy="642" grid="0" gridSize="10" guides="1" tooltips="1" connect="1" arrows="1" fold="1" page="0" pageScale="1" pageWidth="827" pageHeight="1169" math="0" shadow="0">
      <root>
        <mxCell id="0" />
        <mxCell id="1" parent="0" />
        <mxCell id="RB_MS6pWS-S7zq_XhR0S-1" value="" style="whiteSpace=wrap;html=1;aspect=fixed;" parent="1" vertex="1">
          <mxGeometry x="294" y="153" width="80" height="80" as="geometry" />
        </mxCell>
        <mxCell id="RB_MS6pWS-S7zq_XhR0S-3" style="edgeStyle=none;curved=1;rounded=0;orthogonalLoop=1;jettySize=auto;html=1;entryX=0.5;entryY=0;entryDx=0;entryDy=0;fontSize=12;startSize=8;endSize=8;" parent="1" source="RB_MS6pWS-S7zq_XhR0S-2" target="RB_MS6pWS-S7zq_XhR0S-1" edge="1">
          <mxGeometry relative="1" as="geometry" />
        </mxCell>
        <mxCell id="RB_MS6pWS-S7zq_XhR0S-2" value="" style="ellipse;whiteSpace=wrap;html=1;aspect=fixed;" parent="1" vertex="1">
          <mxGeometry x="290" y="11" width="80" height="80" as="geometry" />
        </mxCell>
      </root>
    </mxGraphModel>
  </diagram>
</mxfile>
